<svg height="464pt" viewBox="0 0 464 464" width="464pt" xmlns="http://www.w3.org/2000/svg"><path d="m312 32-35.617188-28.496094c-2.832031-2.265625-6.355468-3.503906-9.984374-3.503906h-90.398438c-8.835938 0-16 7.164062-16 16v264c0 22.089844 17.910156 40 40 40h224c22.089844 0 40-17.910156 40-40v-248zm0 0" fill="#f79d1e"/><path d="m184 24h16v16h-16zm0 0" fill="#eb7c28"/><path d="m216 24h16v16h-16zm0 0" fill="#eb7c28"/><path d="m248 24h16v16h-16zm0 0" fill="#eb7c28"/><path d="m120 72h304v208h-304zm0 0" fill="#dbdfe0"/><path d="m384 280v-168h-304v160c0 26.507812 21.492188 48 48 48h296c-22.089844 0-40-17.910156-40-40zm0 0" fill="#ffc14d"/><path d="m384 128h16v152h-16zm0 0" fill="#d1d4d6"/><path d="m272 168h40v152h-40zm0 0" fill="#f7b354"/><path d="m64 168h224v296h-224zm0 0" fill="#dbdfe0"/><path d="m32 168h224v296h-224zm0 0" fill="#dbdfe0"/><path d="m240 464h-224v-296h160l64 64zm0 0" fill="#d1d4d6"/><path d="m224 464h-224v-296h160l64 64zm0 0" fill="#eaeef0"/><path d="m160 168v64h64zm0 0" fill="#fcfcfc"/><g fill="#dbdee0"><path d="m40 216h56v16h-56zm0 0"/><path d="m40 256h80v16h-80zm0 0"/><path d="m40 296h144v16h-144zm0 0"/><path d="m40 416h112v16h-112zm0 0"/><path d="m96 336h88v16h-88zm0 0"/><path d="m40 336h40v16h-40zm0 0"/><path d="m40 376h144v16h-144zm0 0"/><path d="m136 256h48v16h-48zm0 0"/></g><path d="m256 168h16v296h-16zm0 0" fill="#d1d4d6"/></svg>